<svg width="22" height="22" viewBox="0 0 22 22" fill="none" xmlns="http://www.w3.org/2000/svg">
<path fill-rule="evenodd" clip-rule="evenodd" d="M0.347656 11C0.347656 5.11813 5.11959 0.346191 11.0015 0.346191C16.8834 0.346191 21.6553 5.11813 21.6553 11C21.6553 16.8819 16.8834 21.6539 11.0015 21.6539C5.11959 21.6539 0.347656 16.8819 0.347656 11ZM11.0015 1.34619C5.67188 1.34619 1.34766 5.67041 1.34766 11C1.34766 16.3297 5.67188 20.6539 11.0015 20.6539C16.3311 20.6539 20.6553 16.3297 20.6553 11C20.6553 5.67041 16.3311 1.34619 11.0015 1.34619ZM7.26333 7.26187C7.45859 7.06661 7.77517 7.06661 7.97043 7.26187L11.0015 10.2929L14.0326 7.26187C14.2278 7.06661 14.5444 7.06661 14.7397 7.26187C14.9349 7.45713 14.9349 7.77372 14.7397 7.96898L11.7086 11L14.7397 14.0311C14.9349 14.2264 14.9349 14.5429 14.7397 14.7382C14.5444 14.9335 14.2278 14.9335 14.0326 14.7382L11.0015 11.7071L7.97043 14.7382C7.77517 14.9335 7.45859 14.9335 7.26333 14.7382C7.06806 14.5429 7.06806 14.2264 7.26333 14.0311L10.2944 11L7.26333 7.96898C7.06806 7.77372 7.06806 7.45713 7.26333 7.26187Z" fill="#6B6B6B"/>
</svg>
