<svg width="37" height="38" viewBox="0 0 37 38" fill="none" xmlns="http://www.w3.org/2000/svg">
<path d="M32.8125 0.625H3.9375C2.89321 0.625 1.89169 1.03984 1.15327 1.77827C0.414843 2.51669 0 3.51821 0 4.5625L0 33.4375C0 34.4818 0.414843 35.4833 1.15327 36.2217C1.89169 36.9602 2.89321 37.375 3.9375 37.375H15.1963V24.8808H10.0283V19H15.1963V14.5178C15.1963 9.41957 18.2314 6.60344 22.8802 6.60344C25.1065 6.60344 27.4345 7.00047 27.4345 7.00047V12.0044H24.8694C22.342 12.0044 21.5537 13.5728 21.5537 15.1814V19H27.1958L26.2935 24.8808H21.5537V37.375H32.8125C33.8568 37.375 34.8583 36.9602 35.5967 36.2217C36.3352 35.4833 36.75 34.4818 36.75 33.4375V4.5625C36.75 3.51821 36.3352 2.51669 35.5967 1.77827C34.8583 1.03984 33.8568 0.625 32.8125 0.625Z" fill="white"/>
</svg>
