<svg width="47" height="46" viewBox="0 0 47 46" fill="none" xmlns="http://www.w3.org/2000/svg">
<rect x="3.5" y="3" width="40" height="40" rx="20" fill="#F2F4F7"/>
<path d="M20.166 26.3333L23.4993 23M23.4993 23L26.8327 26.3333M23.4993 23V30.5M30.166 26.9524C31.1839 26.1117 31.8327 24.8399 31.8327 23.4167C31.8327 20.8854 29.7807 18.8333 27.2493 18.8333C27.0673 18.8333 26.8969 18.7383 26.8044 18.5814C25.7177 16.7374 23.7114 15.5 21.416 15.5C17.9642 15.5 15.166 18.2982 15.166 21.75C15.166 23.4718 15.8622 25.0309 16.9885 26.1613" stroke="#475467" stroke-width="1.66667" stroke-linecap="round" stroke-linejoin="round"/>
<rect x="3.5" y="3" width="40" height="40" rx="20" stroke="#F9FAFB" stroke-width="6"/>
</svg>
