<svg width="36" height="37" viewBox="0 0 36 37" fill="none" xmlns="http://www.w3.org/2000/svg">
<path d="M18.2498 12.6424C15.0243 12.6424 12.3919 15.2747 12.3919 18.5003C12.3919 21.7259 15.0243 24.3582 18.2498 24.3582C21.4754 24.3582 24.1078 21.7259 24.1078 18.5003C24.1078 15.2747 21.4754 12.6424 18.2498 12.6424ZM35.8192 18.5003C35.8192 16.0746 35.8412 13.6707 35.7049 11.2494C35.5687 8.43685 34.9271 5.94076 32.8704 3.88412C30.8094 1.82308 28.3177 1.18588 25.5052 1.04965C23.0794 0.913416 20.6756 0.935389 18.2542 0.935389C15.8285 0.935389 13.4246 0.913416 11.0033 1.04965C8.19076 1.18588 5.69467 1.82748 3.63803 3.88412C1.57699 5.94516 0.939784 8.43685 0.803553 11.2494C0.667323 13.6751 0.689295 16.0789 0.689295 18.5003C0.689295 20.9217 0.667323 23.3299 0.803553 25.7513C0.939784 28.5638 1.58139 31.0599 3.63803 33.1165C5.69906 35.1776 8.19076 35.8148 11.0033 35.951C13.429 36.0872 15.8328 36.0653 18.2542 36.0653C20.68 36.0653 23.0838 36.0872 25.5052 35.951C28.3177 35.8148 30.8138 35.1732 32.8704 33.1165C34.9315 31.0555 35.5687 28.5638 35.7049 25.7513C35.8455 23.3299 35.8192 20.9261 35.8192 18.5003ZM18.2498 27.5135C13.262 27.5135 9.23666 23.4881 9.23666 18.5003C9.23666 13.5125 13.262 9.48715 18.2498 9.48715C23.2376 9.48715 27.263 13.5125 27.263 18.5003C27.263 23.4881 23.2376 27.5135 18.2498 27.5135ZM27.6322 11.223C26.4676 11.223 25.5272 10.2826 25.5272 9.11801C25.5272 7.95346 26.4676 7.01303 27.6322 7.01303C28.7967 7.01303 29.7371 7.95346 29.7371 9.11801C29.7375 9.39454 29.6833 9.66841 29.5776 9.92396C29.472 10.1795 29.3169 10.4117 29.1214 10.6072C28.9259 10.8028 28.6937 10.9578 28.4381 11.0635C28.1826 11.1691 27.9087 11.2233 27.6322 11.223Z" fill="white"/>
</svg>
