<svg width="39" height="39" viewBox="0 0 39 39" fill="none" xmlns="http://www.w3.org/2000/svg">
<path d="M33.1213 32.3843H27.5008V23.5648C27.5008 21.4617 27.4569 18.7589 24.5618 18.7589C21.631 18.7589 21.1845 21.0401 21.1845 23.4092V32.3831H15.5569V14.2488H20.9624V16.7224H21.0349C21.7901 15.2938 23.6272 13.7916 26.3679 13.7916C32.0691 13.7916 33.1272 17.5453 33.1272 22.4259V32.3831L33.1213 32.3843ZM9.19906 11.7705C8.76951 11.7707 8.34416 11.6861 7.94735 11.5216C7.55054 11.3571 7.19009 11.1159 6.88663 10.8119C6.58317 10.5079 6.34266 10.147 6.1789 9.74991C6.01513 9.35281 5.93131 8.9273 5.93225 8.49775C5.93295 7.85122 6.12535 7.21941 6.4851 6.68221C6.84486 6.14501 7.35582 5.72655 7.95339 5.47973C8.55096 5.23291 9.20829 5.16882 9.84228 5.29555C10.4763 5.42229 11.0584 5.73417 11.5152 6.19175C11.972 6.64933 12.2828 7.23207 12.4084 7.86629C12.5339 8.50051 12.4687 9.15773 12.2207 9.75484C11.9728 10.352 11.5535 10.8622 11.0156 11.2209C10.4778 11.5797 9.8456 11.771 9.19906 11.7705ZM12.0182 32.3843H6.37875V14.25H12.0182V32.3843ZM35.9427 0H3.5525C2.00519 0 0.75 1.22431 0.75 2.73956V35.2616C0.75 36.7769 2.00519 38.0012 3.5525 38.0012H35.9368C37.4818 38.0012 38.75 36.7769 38.75 35.2616V2.73956C38.75 1.22431 37.4818 0 35.9368 0H35.9427Z" fill="white"/>
</svg>
