<?xml version="1.0" encoding="utf-8"?>
<!-- Generator: Adobe Illustrator 19.0.0, SVG Export Plug-In . SVG Version: 6.00 Build 0)  -->
<svg version="1.1" id="Layer_1" xmlns="http://www.w3.org/2000/svg" xmlns:xlink="http://www.w3.org/1999/xlink" x="0px" y="0px"
	 viewBox="266.4 45.6 441.4 146.8" style="enable-background:new 266.4 45.6 441.4 146.8;" xml:space="preserve">
<style type="text/css">
	.st0{fill:#14120E;}
	.st1{fill:#D01417;}
	.st2{fill:#FFFFFF;}
</style>
<title>chitkara_university_logo_freelogovectors.net</title>
<g>
	<path class="st0" d="M285.9,147.5c1.4,0.1,2.8,0.1,4.3-0.1c2.1-0.3,4.1-0.9,6-1.9v-13.4c-0.9,0.5-1.8,1-2.8,1.4
		c-1.1,0.4-2.3,0.5-3.5,0.4c-0.1,0-2-0.4-2.1-0.4c-0.8-0.4-1.5-0.9-2.2-1.5c-0.1-0.1-1.3-1.7-1.4-1.8c-0.6-1.1-1.1-2.3-1.4-3.5
		c-0.3-1-0.4-2.1-0.5-3.2c-0.1-2.4-0.1-4.7,0-7.1c0.1-1.1,0.3-2.1,0.5-3.2c0.3-1.1,0.7-2.2,1.2-3.2c0.7-1.2,1.6-2.2,2.7-3
		c1.2-0.7,2.5-1.1,3.9-1.1c2.5,0,3.2,0.5,5.6,1.6V94.8c-0.9-0.4-1.8-0.7-2.8-1c-1.1-0.2-2.1-0.4-3.2-0.5c-1.8-0.2-3.5-0.2-5.3,0
		c-3.2,0.4-6.3,1.6-8.9,3.6c-2.5,2-4.6,4.4-6.1,7.2c-0.7,1.4-1.3,2.8-1.9,4.3c-0.6,1.8-1.1,3.7-1.3,5.7c-0.5,4.2-0.5,8.5,0,12.7
		c0.3,1.9,0.8,3.8,1.4,5.7c0.4,1.1,0.8,2.2,1.4,3.2c0.6,1.2,1.4,2.4,2.2,3.5c2.5,3.4,6,6,10,7.4
		C283.1,147.1,284.5,147.4,285.9,147.5z"/>
	<path class="st0" d="M342.1,146.6h14.7c0-0.2,0.1-0.5,0.1-0.7c0-17.2,0-34.5,0-51.7h-14.3H342c-0.1,0.2-0.1,0.5-0.1,0.7
		c0.1,17,0,34,0,51C342,146.1,342,146.4,342.1,146.6z"/>
	<path class="st0" d="M382.9,146.7h0.6c0.1-0.5,0.2-1,0.2-1.5c0-12.3,0-24.5,0-36.8c0-0.2,0-0.4,0-0.6l8.5,0.1c0-0.3,0-0.6,0-0.8
		c0-4.3,0-8.5,0-12.8h-32.1c0,0.2-0.1,0.5-0.1,0.8c0,4.3,0,8.6,0,12.9h8.6l0,38.9C373.4,146.6,378.2,146.6,382.9,146.7z"/>
	<path class="st0" d="M321.1,146.6h14.3c0.2-0.2,0.3-0.4,0.4-0.7c0-17,0-34,0-51c0-0.3,0-0.5-0.1-0.8c-4.7,0-9.4,0.1-14,0
		c-0.6,0-0.6,0.2-0.8,0.4c0,0.2,0,0.5,0,0.7c0,5.8,0,11.7,0,17.5h-5.7c0-5.6,0-11.2,0-16.8c0-0.5,0-1.1,0-1.6
		c-0.3-0.2-0.6-0.2-0.9-0.2c-4.7,0-9.3,0-14,0c0,0.4-0.1,0.8-0.1,1.1c0,17.1,0,34.2,0,51.3l14.7,0c0.2-0.5,0.3-1,0.3-1.5
		c0-6.3,0-12.6,0-18.9h5.7c0,6.5,0,13.1,0,19.6C320.9,146.2,320.9,146.4,321.1,146.6z"/>
	<path class="st0" d="M369.6,192l1.1,0c0.1-0.2,0.4-0.9,0.5-1.1c3.4-8.9,7-17.8,10.2-26.8c0.5-1,1.1-2.1,1.7-3
		c0.7-0.7,1.7-1.2,2.7-1.2l0-1.3h-9.8v1.2c0.9,0.1,1.8,0.4,2.6,0.9c0.5,0.3,0.8,1,0.7,1.6c-1.5,4.7-3.2,9.2-4.9,13.8
		c0,0.1-0.2,0.3-0.3,0.4c-0.9,2.1-1.6,4.3-2.4,6.4c-0.1,0.4-0.3,0.7-0.5,1.1c-2.8-6.9-6.2-14.2-8.5-21.2c-0.3-0.9,0.1-1.4,0.5-2.1
		c0.9-0.3,1.8-0.5,2.8-0.6l-0.1-1.2c-0.3-0.1-0.6-0.1-0.9-0.1c-4,0-7.9,0-11.9,0l0,1.3c0.9,0,1.7,0.2,2.5,0.6c0.5,0.4,1,0.9,1.4,1.4
		C361.4,171.9,365.5,181.9,369.6,192z"/>
	<path class="st0" d="M456.6,192c2.8,0.6,5.8-0.1,8.1-1.7c1.3-0.9,1.6-1.8,2.6-2.9c0.6-1,1-2.1,1.1-3.2c0.1-1.5,0-3-0.5-4.4
		c-0.4-1.7-1.8-3.2-3.2-4.2c-3.4-2.4-7.2-4.2-10.5-6.7c-0.7-0.6-1.3-1.3-1.9-2.1c-0.4-0.8-0.6-1.6-0.5-2.5c0.5-1.9,0.9-2.4,2.5-3.5
		c1-0.8,3.2-0.8,4.4-0.5c1.1,0.3,2.2,0.8,3.1,1.6c0.1,0,1.4,1.4,1.5,1.6c1.2,2.1,1.4,3.7,1.9,5.9c0.4,0.1,0.7,0.1,1.1-0.1
		c0.1-0.2,0.2-0.5,0.2-0.7c0-3.6,0-7.1,0-10.7l-1-0.2c-0.2,0.4-0.7,1.6-1.1,1.8c-0.2,0.1-0.5,0.1-0.7,0.1c-1.3-0.4-2.6-0.9-3.9-1.4
		c-0.1,0-2.8-0.4-2.8-0.4c-1.4,0.2-2.9,0.2-4.2,0.9c-2.9,1.3-4.8,4.1-5,7.3c0,1.1,0.1,2.1,0.4,3.2c0.5,1.2,1.2,2.4,2.1,3.4
		c0.6,0.6,1.3,1.2,2,1.7c3.1,2,6.8,4,9.7,6.2c2,1.5,2.7,4.3,1.6,6.5c-0.3,0.7-0.8,1.4-1.5,1.8c-2.4,1-4.1,1.4-6.8,0.5
		c-1.5-0.6-2.9-1.6-3.9-2.8c-1.2-1.9-1.3-3.4-1.9-5.5c-0.1-0.3-0.3-0.4-0.6-0.4l-0.7,0.1V192l1.3-0.1l0.1-1.1
		c0.3-0.2,0.7-0.7,1.1-0.6C452.6,190.7,454.5,191.5,456.6,192z"/>
	<path class="st0" d="M284.9,191.9c1.9,0.2,3.8,0.3,5.7,0c2.7-0.3,5.1-1.6,6.8-3.6c0.6-0.7,1.2-1.6,1.5-2.5c0.5-1.4,0.8-2.8,1-4.2
		c0.3-6,0.1-12.1,0.1-18.1c0,0,0.3-1.7,0.3-1.8c0.3-0.8,0.9-1.4,1.6-1.8c2-0.6,4.3-0.3,6,1c0.7,0.5,1.9,1.8,1.9,2.6
		c-0.1,8,0.1,16.1-0.1,24.1c-0.1,0.6-0.4,1.1-0.8,1.6c-0.8,0.7-1.8,0.7-2.8,0.7c-0.2,0-0.4,0.1-0.6,0.2v0.7c0.1,0.1,0.2,0.2,0.3,0.3
		c0.1,0.1,0.2,0.2,0.4,0.2c2.5,0,5,0,7.4,0c0.9,0,1.8,0,2.7,0c0.4-0.3,0.2-1,0.1-1.3c-0.9,0.1-2.5,0.1-3.2-0.6
		c-0.5-0.6-0.8-1.3-0.9-2c-0.2-6-0.1-12-0.1-18c-0.1-0.3-0.1-0.7,0-1.1c-0.1-0.4-0.1-0.8-0.1-1.1l0.5-0.5
		c6.3,8.1,12.4,16.3,18.7,24.4c0.4,0.6,0.6,0.8,1.4,0.8c0.1-0.2,0.3-0.3,0.5-0.5c-0.1-0.1-0.1-0.3-0.2-0.5c0-9.1,0-18.2,0-27.3
		c0-0.9,0.4-2.5,1-3.2c0.7-0.7,2.4-0.7,3.4-0.6l0-1.2l-11,0v1.2c1,0,2.2-0.1,3.1,0.5c0.5,0.4,0.9,0.9,1.1,1.6
		c0.3,6.8,0.1,13.5,0.1,20.3c-6.2-7.8-12.2-15.7-18.2-23.6h-19.4v1.2c1.2,0.1,2.5-0.1,3.5,0.6c0.4,0.4,0.6,0.9,0.7,1.4
		c0.4,5.9,0.5,11.8,0.2,17.7c-0.1,1.3-0.2,2.6-0.4,3.9c-0.4,2-1.6,3.7-3.3,4.7c-0.2,0.1-1.9,1-2.1,1c-1.2,0.2-2.4,0.4-3.5,0.4
		c-1.2-0.1-2.4-0.3-3.5-0.8c-0.7-0.3-1.3-0.8-1.8-1.4c-0.6-0.8-1.1-1.7-1.5-2.6c-0.2-0.8-0.4-1.6-0.5-2.5c-0.3-6.8-0.3-13.7,0-20.5
		c0.1-0.4,0.3-0.8,0.5-1.1c0.1-0.1,0.2-0.2,0.3-0.3c1.1-0.5,2.2-0.7,3.4-0.6v-1.2c-4.5-0.2-9-0.2-13.5,0c-0.2,0.4-0.3,0.8-0.1,1.2
		c1.2,0,2.8-0.1,3.7,1c0.2,0.3,0.4,0.7,0.5,1.1c0.3,6.4,0.1,12.7,0.2,19.1c0.1,1.2,0.2,2.4,0.4,3.5c0.3,0.9,0.6,1.7,1,2.5
		C279.2,189.9,281.5,191.4,284.9,191.9z"/>
	<path class="st0" d="M351.4,191.3c0.1,0,0.2,0,0.4,0c0.2-0.1,0.3-0.3,0.5-0.5c0-0.1,0-0.2,0-0.3c-0.1-0.2-0.3-0.4-0.5-0.5
		c-1.1,0.1-2.3-0.2-3.2-0.9c-0.6-0.4-0.7-1.9-0.7-2.5c0-7.8,0-15.6,0-23.4c0-0.5,0.4-2.2,0.7-2.5c1.1-1.1,2.2-1,3.7-0.8v-1.4h-13.4
		v1.4c1.2-0.1,3.8,0,4.1,1.6c1.1,6.8,0.2,16.2,0.2,23.4c0,0.9-0.1,3.7-0.6,4.3c-0.7,0.8-2.4,1-3.5,0.9c0,0.1-0.1,0.1-0.1,0.2
		c-0.1,0.4-0.2,0.8-0.1,1.1c3.9,0,7.7,0.1,11.6,0C350.7,191.3,351.1,191.1,351.4,191.3z"/>
	<path class="st0" d="M408.4,191.2c0.9,0,2.5,0.4,2.8-0.7c0.8-2.6,1.6-5.1,2.4-7.7h-1.3c-0.8,1.4-1.6,2.8-2.5,4.2
		c-0.8,0.7-1.6,1.3-2.5,1.8c-2.9,0.4-5.9,0.5-8.9,0.4c-0.7,0-1.4-0.2-2.1-0.4c-0.7-3-0.3-9.7-0.3-13.1c0-0.1,0.3-0.3,0.4-0.4
		c1.8,0,3.6,0,5.4,0c1.1,0,2.2,0.1,3.2,0.5c0.4,0.2,0.7,0.4,1.1,0.6c0.6,0.9,0.6,2.2,0.9,3.2c0.1,0.2,0.1,0.4,0.2,0.5l0.9,0
		c0.2-0.1,0.2-0.3,0.3-0.5c0-3.7,0-7.3,0-11l-1.2-0.2c-0.2,1.2-0.2,2.3-0.9,3.4c-0.3,0.6-0.9,1-1.5,1.1c-2.9,0.3-5.8,0.3-8.7,0V161
		c0.2-0.2,0.4-0.3,0.6-0.3c2.4,0,8.3-0.3,10.3,0.3c0.6,0.2,1.1,0.4,1.6,0.8c0.8,1.2,1.3,2.7,1.5,4.2c0.3,0.1,0.7,0.2,1,0.1
		c0.2-0.4,0.3-0.9,0.2-1.4c-0.1-2.1-0.3-4.1-0.4-6.2h-23.8v1.3c1.1,0,2.4-0.2,3.3,0.4c0.5,0.4,0.8,0.9,0.9,1.5
		c0.3,7.4,0.1,14.9,0.1,22.3c0,1.1,0.2,4.3-0.6,5c-0.9,0.7-2.1,1-3.2,0.9c-0.2,0.2-0.4,0.4-0.6,0.7c0.1,0.2,0.5,0.6,0.6,0.6
		C394.5,191.4,401.5,191.4,408.4,191.2z"/>
	<path class="st0" d="M472.9,191.3c3.9,0,7.8,0,11.7,0c0.2,0,0.5-0.2,0.6-0.4v-0.7c-1.2,0-2.3-0.3-3.4-0.8c-0.1-0.1-0.2-0.1-0.4-0.2
		c-0.1-0.1-0.1-0.3-0.2-0.4c-0.2-0.6-0.3-1.2-0.4-1.8c-0.1-7.3,0-14.6,0-21.9c0-1.1,0.1-3.9,1-4.6c0.8-0.6,2.5-0.6,3.5-0.5l0-1.3
		l-13.5-0.1l-0.1,1.4c1.2-0.1,2.3,0.1,3.4,0.5c0.4,0.4,0.6,0.9,0.8,1.5c0.6,7.6,0,15.6,0.1,23.4c0,1.2-0.2,2.4-0.4,3.5
		c-0.8,1.2-2.4,1.4-3.7,1.2c0,0.1-0.1,0.1-0.1,0.2c-0.1,0.4-0.2,0.9-0.1,1.3l0.6-0.2C472.4,191.2,472.6,191.2,472.9,191.3z"/>
	<path class="st0" d="M505.8,191.2c0.2,0,0.3,0.2,0.5,0.1l0.5-0.5c0-0.3-0.1-0.6-0.3-0.9c-1.1,0-2.7,0-3.5-0.9
		c-0.1-0.1-0.1-0.2-0.1-0.4c0-0.1-0.3-1.4-0.3-1.4c-0.2-8.8,0-17.5-0.1-26.3c0.5,0,1.1,0,1.6,0c1.8-0.1,5.1-0.1,6.4,1.3
		c0.4,0.4,0.6,0.8,0.8,1.3c0.3,1,0.5,1.9,0.7,2.9c0.4,0.1,0.9,0.1,1.3,0l-0.5-7.9c-0.3,0-0.7,0-1,0c-8.1,0-16.2,0-24.3,0
		c0,2.4-0.1,4.8-0.3,7.2c0,0.3,0,0.5,0.2,0.7c0.3,0.1,0.7,0.2,1,0.1c0.3-1.4,0.8-2.7,1.4-4c0.4-0.5,1-0.9,1.6-1.2c2-0.4,4-0.5,6-0.3
		c0.2,0,0.4,0.4,0.4,0.5c0,8.5,0,17,0,25.5c0,0.8-0.3,1.6-0.8,2.2c-0.8,0.7-2.2,0.9-3.2,0.8c-0.1,0.1-0.2,0.2-0.3,0.3
		c-0.2,0.3,0,0.8,0,1.1l0.7-0.3c0.1,0.1,0.2,0.1,0.4,0.1C498.2,191.3,502,191.4,505.8,191.2z"/>
	<path class="st0" d="M536.2,191.2l0.4,0.1c0.1,0,0.2-0.1,0.4-0.2c0.3-0.2,0.4-0.6,0.2-1c-0.1-0.1-0.1-0.1-0.2-0.2
		c-1.3,0-2.9-0.1-3.7-1.2c-0.3-3.8-0.4-7.5-0.3-11.3c2.7-5,6-10.5,9.2-15.2c1-1.5,2.7-2.4,4.6-2.3l0-1.3c-0.2,0-0.4-0.1-0.6-0.1
		c-3.4,0-6.8,0-10.3,0l-0.1,1.3c1,0,2.1,0,2.7,1c0.4,0.6,0.5,1.4,0.2,2.1c-1.7,3.9-4.7,8.2-6.9,11.9c-2.2-3.5-6.2-9.2-7.6-12.9
		c-0.2-0.5,0.6-1.4,1.1-1.6c0.8-0.4,1.7-0.5,2.5-0.4l0-1.3l-0.7,0c-4.3,0-8.5,0-12.7,0l0,1.2c0.7,0.1,1.5,0.3,2.2,0.6
		c0.6,0.4,1.3,0.9,1.8,1.4c3.2,5.4,6.7,10.6,9.8,16c0.2,0.2,0.2,0.5,0.2,0.7c0,2.8,0,5.7,0,8.5c0,0.5-0.4,1.9-0.7,2.2
		c-0.9,0.7-2.1,1-3.2,0.9c-0.1,0.1-0.3,0.2-0.4,0.3l-0.2,0.7c0.4,0.2,0.8,0.3,1.2,0.3c3.7,0,7.3,0.1,11,0
		C536,191.3,536.1,191.2,536.2,191.2z"/>
	<path class="st1" d="M690.2,192.4c-38.5,0-76.9-0.1-115.4,0c-1,0-2,0-3-0.1c-1.1-0.1-2.1-0.4-3-1c-0.9-0.6-1.4-0.6-2.3-1
		c0-0.2-0.1-0.4-0.2-0.6c-0.5-0.4-1.1-0.7-1.7-0.9c-0.6-1-1.2-1.9-2-2.8c0.1-0.6-1.3-2.2-1.5-2.8c0-0.2-0.3-2.6-0.3-2.8
		c0.3-40.8,0.1-81.7,0-122.5c-0.1-0.8,0-1.6,0.1-2.3c0.3-1,0.7-2.3,1-3.4l0.4-0.1c0.7-1.2,1.5-2.2,2.4-3.2c0.6-0.4,1.2-1.1,1.8-1.4
		l0.6,0.1c0-0.2,0-0.4,0.1-0.7c0.5-0.1,1.1-0.2,1.6-0.2c0.1-0.2,0.1-0.4,0.2-0.6c1-0.2,1.9-0.3,2.9-0.4c41.5,0.1,83,0,124.6,0
		c0.7,0,1.3,0,2,0.1c0.8,0.3,1.6,1.3,2.6,1.3c1.3,0.9,2.5,1.8,3.6,2.9c0.4,0.4,2.1,2.7,2.2,3.2c0,0.7,0.2,1.4,0.6,2
		c0.1,0.7,0.2,1.9,0.2,2.6c0.1,41.2,0.1,82.4,0,123.5c0,0.6-0.1,1.3-0.1,1.9c-0.3,0.1-0.5,0.3-0.7,0.6c-0.3,0.4-0.4,1-0.3,1.5
		c-1,1.1-1.9,2.3-2.6,3.6h-0.7c-0.5,0.5-0.9,1.1-1.3,1.7c-0.5,0.2-1.1,0.3-1.7,0.2c-0.7,0.8-1.6,1.4-2.6,1.6
		C695.2,192.4,692.7,192.4,690.2,192.4z"/>
	<path class="st2" d="M669,153h-11.2c-0.4-0.3-0.4-0.2-0.4-0.7c0-18.6,0.1-37.3,0.1-55.9c0-0.5,0-1,0-1.4c-0.1-0.2-0.3-0.5-0.6-0.5
		c-0.8-0.1-1.7-0.1-2.5,0c-18.5,0-36.9,0-55.4,0c0-3.7,0-7.4,0-11.1c0-0.4,0-0.8,0.1-1.2h70.5c0.1,0.8,0.2,1.5,0.2,2.3
		c-0.1,21.6-0.2,43.2,0,64.8c0,1.3-0.1,2.6-0.2,3.9L669,153z"/>
	<path class="st2" d="M648.1,153c-3.9,0-7.7,0-11.6,0v-36.8c-0.5-0.2-1-0.3-1.5-0.3c-11.9,0.1-23.8,0-35.7,0
		c-0.1-0.3-0.2-0.6-0.2-0.9c0.1-3.8,0-7.6,0-11.4h49.6c0,15.2,0,30.5,0,45.7c0,1.2,0,2.4,0,3.6L648.1,153z"/>
	<path class="st2" d="M599.8,153c-0.1-0.2-0.2-0.5-0.3-0.7c0-8.3,0-16.5,0-24.8c0.1-0.3,0.2-0.6,0.3-0.9c1,0,1.9-0.1,2.9,0
		c7.4,0.1,14.9,0,22.3,0c0.3,0,0.6,0.1,0.9,0.1c0,0.6,0.1,1.2,0,1.9c0,7.7,0.1,15.3,0,23c0,0.4,0,0.7-0.1,1.1
		c-0.1,0.2-0.3,0.4-0.6,0.4C616.9,153,608.4,153,599.8,153z"/>
	<path class="st0" d="M546.1,146.7h0.5c0.1-0.4,0.2-0.8,0.1-1.1c-3.5-16.6-7.4-33.2-10.9-49.8c-0.1-0.6-0.3-1.1-0.6-1.6h-16.5
		c-3.6,15.2-6.9,30.7-10,46.1c-0.3,1.4-0.7,3-1.1,4.3c-3.2-6.9-6.3-13.7-9.4-20.6c-0.1-0.3,0-0.5,0.2-0.7c1.2-0.6,2.4-1.2,3.4-2.1
		c0.8-0.7,1.5-1.4,2.2-2.2c2.8-3.8,3-7.8,2.4-12.4c-0.2-1.1-0.6-2.2-1-3.2c-0.5-1-1-1.9-1.7-2.8c-1.2-1.4-2.5-2.6-4-3.6
		c-1.6-1.1-3.4-1.8-5.3-2.2c-0.5-0.1-3.1-0.6-3.5-0.6c-6.3-0.1-12.5,0-18.8-0.1c-0.2,0-0.4,0-0.7,0.1c0,0,0,0.7,0,0.7
		c0,16.3,0.2,32.6,0,48.8c0,0.1-0.1,0.2-0.1,0.4c0,0.8,0.1,1.7,0.2,2.5c4.6,0,9.1-0.1,13.7,0c0.4,0,0.8-0.1,1.1-0.4
		c0-5.5-0.1-11.1,0-16.7c0-0.2,0.2-0.8,0.3-0.6c0.3,0.5,0.5,1.1,0.7,1.7c1.7,5.3,3.4,10.6,5.2,15.9h29.2c0.4-2.6,0.8-5.1,1.1-7.6
		c2.5-0.1,5.1-0.1,7.6-0.1c0.2,0,0.5,0.1,0.7,0.1c0.2,1.9,0.4,4,0.7,5.8c0.1,0.6,0.2,1.2,0.4,1.8C537,146.6,541.6,146.6,546.1,146.7
		z M486.4,117.3c-0.1-0.4-0.1-0.8-0.1-1.1c0-3.6,0-7.2,0-10.7c3.2-0.2,4.8,1.7,5.1,4.7c0.2,1.6,0,3.3-0.6,4.8
		c-0.5,1.4-2.3,2-3.5,2.3C487.1,117.3,486.7,117.3,486.4,117.3z M529.1,128h-4.6c0.6-5.6,1.8-11.2,2.4-16.9c0-0.3,0.3,0.5,0.4,0.8
		c0.9,5.3,1.6,10.7,2.4,16.1L529.1,128z"/>
	<path class="st0" d="M455,146.6c4.6,0,9.3,0,13.9,0c0.2,0,0.4-0.1,0.6-0.1c0-0.4-0.1-0.9-0.2-1.3c-3.3-14.6-6.5-29.3-9.6-43.9
		c-0.5-2.3-1.1-4.5-1.5-6.9c-0.3-0.2-0.7-0.2-1-0.3c-5.3,0-10.6,0-15.9,0c-3.1,15.6-6.7,31.4-10.3,46.9c-3.1-7.5-6.1-15.2-8.9-22.8
		c3.5-7.6,6.7-15.2,10.3-22.8c0.2-0.4,0.3-0.9,0.4-1.3h-15.1c-0.2,0.3-0.4,0.7-0.6,1.1c-2.1,6.3-4.5,12.6-6.8,18.8
		c-0.1,0.2-0.2,0.4-0.3,0.7c0-0.3-0.1-0.7-0.1-1c0.1-6.1,0-12.3,0-18.4c0-0.3,0-0.9,0-1.1h-14.9c0,0.5-0.1,1-0.1,1.5
		c0.1,16.5,0.1,33.1,0,49.6c0,0.5,0.1,1,0.2,1.5l14.6,0c0.2-0.2,0.3-0.4,0.3-0.7c0-6.7,0.1-13.5-0.1-20.2c0-0.1,0-0.2,0-0.4
		c0-0.4,0.1-0.9,0.2-0.5c2.2,7.1,4.5,14.1,6.7,21.3c0,0.1,0.1,0.1,0.1,0.1c0.1,0.1,0.3,0.4,0.6,0.4c8.9,0.1,17.8,0,26.7,0
		c0.2-0.2,0.3-0.5,0.4-0.7c0.4-2.2,0.7-4.7,1-6.9h8.2C454.2,141.5,454.6,144.1,455,146.6z M447.2,128c0.9-5.4,1.6-10.9,2.4-16.3
		c0.3,0.2,0.6,0.6,0.7,0.9c0.7,5,1.3,10,2.3,15c-0.2,0.1-0.3,0.2-0.5,0.3L447.2,128z"/>
	<path class="st0" d="M445.2,191.3h0.5c0.1-0.4,0.1-0.9-0.1-1.3c-2.3-0.2-4.4-1.2-5.9-3c-2.9-3.7-5.2-7.8-8-11.6
		c1.2,0,3.3-1,4.3-1.8c2-1.6,3.2-3.9,3.2-6.5c-0.1-0.8-0.2-1.7-0.4-2.5c-0.8-2.3-2.4-4.2-4.6-5.2c-1.2-0.5-2.6-0.8-3.9-0.9
		c-5.1-0.3-10.3-0.1-15.4-0.1v1.4c0.9-0.1,1.8-0.1,2.7,0.1c0.4,0.1,0.8,0.4,1.1,0.8c0.8,1.9,0.7,2.9,0.7,5c0,7.1,0.2,14.4-0.1,21.4
		c0,0.9-0.4,1.7-1.1,2.2c-1,0.7-2.1,0.7-3.3,0.6l0,1.2c4.4,0.2,9,0.1,13.4,0.1c0.2-0.4,0.2-0.9-0.1-1.3c-1.2,0.1-3.2,0-3.8-1.3
		c-0.2-0.5-0.3-0.9-0.3-1.4c-0.2-3.7-0.1-7.4-0.1-11.1l2.7-0.1c0.3,0.2,0.6,0.5,0.8,0.7c2.9,4.7,6.3,9.6,9.6,14.1
		c0.2,0.1,0.5,0.3,0.7,0.3c0.1-0.1,0.2-0.1,0.4-0.1C440.5,191.2,442.9,191.3,445.2,191.3z M424.2,174.4l-0.1-12.9
		c2.9-0.9,4.4-0.9,7.1,0.4c0.1,0,1.3,1.3,1.4,1.5c1.5,2.2,1.4,5.1,0.4,7.4c-0.5,0.8-1.2,1.5-1.9,2.1c-1.3,0.8-2.7,1.3-4.2,1.5
		C426,174.5,425.1,174.5,424.2,174.4L424.2,174.4z"/>
</g>
</svg>
