<svg width="20" height="14" viewBox="0 0 20 14" fill="none" xmlns="http://www.w3.org/2000/svg">
<path d="M3.52049 0.520508C1.86132 2.18051 0.833313 4.4725 0.833313 7C0.833313 9.5275 1.86132 11.8195 3.52049 13.4795L4.69887 12.3011C3.34054 10.9428 2.49998 9.0675 2.49998 7C2.49998 4.9325 3.34054 3.05723 4.69887 1.69889L3.52049 0.520508ZM16.4795 0.520508L15.3011 1.69889C16.6594 3.05723 17.5 4.9325 17.5 7C17.5 9.0675 16.6594 10.9428 15.3011 12.3011L16.4795 13.4795C18.1386 11.8195 19.1666 9.5275 19.1666 7C19.1666 4.4725 18.1386 2.18051 16.4795 0.520508ZM5.87726 2.87728C4.82059 3.93311 4.16665 5.39167 4.16665 7C4.16665 8.60833 4.82059 10.0669 5.87726 11.1227L7.05564 9.94434C6.30064 9.19017 5.83331 8.14833 5.83331 7C5.83331 5.85167 6.30148 4.81066 7.05564 4.05566L5.87726 2.87728ZM14.1227 2.87728L12.9443 4.05566C13.6993 4.80983 14.1666 5.85167 14.1666 7C14.1666 8.14833 13.6985 9.18934 12.9443 9.94434L14.1227 11.1227C15.1785 10.0661 15.8333 8.60833 15.8333 7C15.8333 5.39167 15.1794 3.93311 14.1227 2.87728ZM9.99998 4.5C9.33694 4.5 8.70105 4.76339 8.23221 5.23223C7.76337 5.70107 7.49998 6.33696 7.49998 7C7.49998 7.66304 7.76337 8.29893 8.23221 8.76777C8.70105 9.23661 9.33694 9.5 9.99998 9.5C10.663 9.5 11.2989 9.23661 11.7677 8.76777C12.2366 8.29893 12.5 7.66304 12.5 7C12.5 6.33696 12.2366 5.70107 11.7677 5.23223C11.2989 4.76339 10.663 4.5 9.99998 4.5Z" fill="#E31E24"/>
</svg>
