<svg width="36" height="37" viewBox="0 0 36 37" fill="none" xmlns="http://www.w3.org/2000/svg">
<path d="M34.4219 0.921875H2.07812C1.30029 0.921875 0.671875 1.55029 0.671875 2.32812V34.6719C0.671875 35.4497 1.30029 36.0781 2.07812 36.0781H34.4219C35.1997 36.0781 35.8281 35.4497 35.8281 34.6719V2.32812C35.8281 1.55029 35.1997 0.921875 34.4219 0.921875ZM27.7114 13.6528C27.7246 13.8594 27.7246 14.0747 27.7246 14.2856C27.7246 20.7368 22.8115 28.168 13.8335 28.168C11.0649 28.168 8.49854 27.3638 6.33643 25.9795C6.73193 26.0234 7.10986 26.041 7.51416 26.041C9.79932 26.041 11.8999 25.2676 13.5742 23.958C11.4297 23.9141 9.62793 22.5078 9.01269 20.5742C9.76416 20.6841 10.4409 20.6841 11.2144 20.4863C10.1101 20.262 9.11761 19.6623 8.40544 18.7891C7.69327 17.9159 7.30536 16.8231 7.30762 15.6963V15.6348C7.95361 15.9995 8.71387 16.2236 9.50928 16.2544C8.84062 15.8088 8.29225 15.205 7.91279 14.4967C7.53334 13.7884 7.33453 12.9974 7.33398 12.1938C7.33398 11.2842 7.57129 10.4536 7.99756 9.73291C9.2232 11.2417 10.7526 12.4757 12.4864 13.3547C14.2202 14.2337 16.1196 14.7381 18.061 14.835C17.3711 11.5171 19.8496 8.83203 22.8291 8.83203C24.2354 8.83203 25.501 9.4209 26.3931 10.3701C27.4961 10.1636 28.5508 9.75049 29.4912 9.19678C29.1265 10.3262 28.3618 11.2798 27.3467 11.8818C28.3311 11.7764 29.2803 11.5039 30.1592 11.1216C29.4956 12.0972 28.665 12.9629 27.7114 13.6528Z" fill="white"/>
</svg>
